<svg height="512pt" viewBox="-76 0 512 512" width="512pt" xmlns="http://www.w3.org/2000/svg"><path d="m180 0c-99.300781 0-180 81.699219-180 181 0 35.398438 10.199219 69.601562 29.699219 99l150.300781 232 150.300781-232c19.5-29.398438 29.699219-63.601562 29.699219-99 0-99.300781-80.699219-181-180-181zm0 271c-49.5 0-90-40.5-90-90s40.5-91 90-91 90 41.5 90 91-40.5 90-90 90zm0 0" fill="#ff6c6c"/><path d="m360 181c0 35.398438-10.199219 69.601562-29.699219 99l-150.300781 232v-241c49.5 0 90-40.5 90-90s-40.5-91-90-91v-90c99.300781 0 180 81.699219 180 181zm0 0" fill="#ff4949"/></svg>